#!OML:ASF F:\VICON\USERDATA\INSTALL\rory3\rory3.ASF
:FULLY-SPECIFIED
:DEGREES
544
root -2.73225 19.7347 0.511633 181.744 52.0804 -203.556
lowerback -0.33142 5.27678 -7.79968
upperback -5.29966 7.22399 -8.63915
thorax -5.18183 4.02761 -5.07212
lowerneck -14.7989 1.53969 5.56132
upperneck 42.3296 4.22939 2.33269
head 18.5215 4.26365 1.37739
rclavicle 5.30507e-014 -6.36111e-014
rhumerus -93.8262 -76.0987 72.9027
rradius 13.4284
rwrist 101.354
rhand 23.9293 -0.783286
rfingers 7.12502
rthumb 48.1764 -22.9134
lclavicle 5.30507e-014 -6.36111e-014
lhumerus 24.5784 2.80954 60.2058
lradius 13.7027
lwrist -66.1758
lhand -18.207 24.6489
lfingers 7.12502
lthumb 8.07051 54.4748
rfemur 315.857 -14.6701 -331.009
rtibia 41.6192
rfoot 166.493 -215.365
rtoes 54.5273
lfemur -66.1814 -1.24959 -5.54071
ltibia 48.5465
lfoot -28.7182 31.216
ltoes 50.9943
545
root -2.81753 19.8497 0.370213 181.394 55.7259 -203.96
lowerback -0.750051 5.38621 -7.49498
upperback -5.32617 7.3961 -8.62552
thorax -4.93005 4.08782 -5.17269
lowerneck -15.0216 2.26702 6.38997
upperneck 42.44 5.27937 1.59794
head 18.7445 4.65098 1.09037
rclavicle 1.02871e-014 -1.11319e-014
rhumerus -66.145 -75.1269 41.92
rradius 12.9399
rwrist 96.2813
rhand 24.3935 -0.0203937
rfingers 7.12502
rthumb 48.6037 -21.9465
lclavicle 1.02871e-014 -1.11319e-014
lhumerus 22.9936 -0.505332 59.7586
lradius 14.6845
lwrist -62.6407
lhand -19.0589 23.7994
lfingers 7.12502
lthumb 7.24828 53.6552
rfemur 313.767 -19.2806 -326.667
rtibia 44.0425
rfoot 178.088 -217.982
rtoes 51.6137
lfemur -65.3696 -2.4197 -4.84742
ltibia 49.2887
lfoot -26.7645 31.6856
ltoes 49.9777
546
root -2.90119 19.9372 0.214383 180.192 59.8697 -204.934
lowerback -0.306706 5.52365 -8.36002
upperback -5.92868 7.39609 -7.83892
thorax -6.05231 4.12621 -4.01833
lowerneck -14.7944 2.76555 6.48693
upperneck 43.0202 6.47201 0.807745
head 19.1346 5.025 0.956939
rclavicle 2.58669e-014 -7.09661e-014
rhumerus -36.3249 -67.8902 9.27803
rradius 12.4829
rwrist 87.974
rhand 24.7135 -0.15008
rfingers 7.12502
rthumb 48.898 -21.9328
lclavicle 2.58669e-014 -7.09661e-014
lhumerus 19.8842 -0.390214 61.8218
lradius 15.0382
lwrist -63.8737
lhand -18.9784 24.6652
lfingers 7.12502
lthumb 7.32602 54.5183
rfemur 312.407 -21.7849 -323.671
rtibia 46.7578
rfoot 194.067 -216.624
rtoes 46.8467
lfemur -64.1009 -3.37302 -4.3479
ltibia 49.9635
lfoot -26.0939 30.6328
ltoes 49.647
547
root -2.98555 19.9964 0.0550121 178.333 64.0582 -206.351
lowerback 0.16514 5.61154 -8.30805
upperback -6.34101 7.39365 -7.73934
thorax -6.77802 4.12473 -4.05474
lowerneck -13.7595 3.41615 6.67594
upperneck 43.0005 7.60795 0.589444
head 18.909 5.46154 0.991264
rclavicle -6.56983e-014 4.57205e-014
rhumerus -23.4665 -57.4621 -7.63212
rradius 12.1929
rwrist 78.6687
rhand 24.5359 -0.563609
rfingers 7.12502
rthumb 48.7347 -22.4262
lclavicle -6.56983e-014 4.57205e-014
lhumerus 17.1049 -4.32061 61.1823
lradius 15.9866
lwrist -59.426
lhand -17.2987 23.9339
lfingers 7.12502
lthumb 8.94713 53.7242
rfemur 311.736 -22.8147 -321.87
rtibia 49.7014
rfoot 206.656 -211.87
rtoes 42.0053
lfemur -62.7902 -5.10648 -3.22688
ltibia 50.464
lfoot -31.5591 25.8707
ltoes 51.7352
548
root -3.07471 20.073 -0.0993855 175.938 68.1062 -208.234
lowerback 0.77489 5.73924 -8.37108
upperback -6.69803 7.42131 -7.39659
thorax -7.5775 4.14072 -3.79144
lowerneck -13.2681 3.93768 6.56284
upperneck 43.0735 8.52042 0.422905
head 18.8662 5.75357 1.08174
rclavicle 1.57736e-013 -5.08889e-014
rhumerus -16.7772 -43.7951 -18.211
rradius 12.489
rwrist 66.7673
rhand 24.4122 -0.50186
rfingers 7.12502
rthumb 48.6209 -22.4197
lclavicle 1.57736e-013 -5.08889e-014
lhumerus 14.4224 -6.09181 62.07
lradius 16.6631
lwrist -56.9137
lhand -14.6528 21.8214
lfingers 7.12502
lthumb 11.4996 51.4859
rfemur 311.508 -22.9755 -320.854
rtibia 52.6087
rfoot 214.199 -208.155
rtoes 38.4933
lfemur -61.4219 -6.54665 -2.88961
ltibia 51.0756
lfoot -35.6082 19.7449
ltoes 53.3213
